<svg xmlns="http://www.w3.org/2000/svg" width="480" height="800" viewBox="0 0 480 800"><title>Yuji recovery placeholder</title><desc>Transparent follow-through pose, facing right, feet on y 760.</desc><g stroke="#17191e" stroke-width="18" stroke-linejoin="round"><path fill="#e32620" d="M181 286l97-23 87 143-87 174-115-14-49-152z"/><circle fill="#f2c6a0" cx="232" cy="194" r="65"/><path fill="#d7a27a" d="M165 170l40-75 88 29 3 66-49-36-37 35z"/><path fill="#101b36" d="M169 562l87 8-39 190h-70zM276 565l81 38 61 157h-67l-97-132z"/><path fill="#f2c6a0" d="M132 350L42 425l27 39 119-62zM336 338l92 66-27 39-105-54z"/></g></svg>
