<svg xmlns="http://www.w3.org/2000/svg" viewBox="0 0 900 820" role="img" aria-label="Bright academy battle courtyard">
  <defs>
    <linearGradient id="bg" x1="0" x2="0" y1="0" y2="1">
      <stop offset="0" stop-color="#A7DEFF"/>
      <stop offset=".5" stop-color="#FFF3D5"/>
      <stop offset="1" stop-color="#F6C77D"/>
    </linearGradient>
    <linearGradient id="floor" x1="0" x2="1" y1="0" y2="1">
      <stop offset="0" stop-color="#FFFFFF"/>
      <stop offset=".48" stop-color="#FFE4A8"/>
      <stop offset="1" stop-color="#9DDCFF"/>
    </linearGradient>
  </defs>
  <rect width="900" height="820" fill="url(#bg)"/>
  <path d="M0 310 C150 258 240 290 382 228 C548 156 720 166 900 104 L900 820 L0 820 Z" fill="#FFFFFF" opacity=".36"/>
  <path d="M0 420 C220 352 660 352 900 420 L900 820 L0 820 Z" fill="url(#floor)"/>
  <path d="M108 512 C250 454 644 454 790 512" fill="none" stroke="#FFFFFF" stroke-width="26" stroke-linecap="round" opacity=".65"/>
  <path d="M156 596 C302 538 596 538 746 596" fill="none" stroke="#142033" stroke-width="9" stroke-linecap="round" opacity=".18"/>
  <path d="M228 442 L674 442" stroke="#142033" stroke-width="7" stroke-linecap="round" opacity=".16"/>
  <path d="M336 352 C380 304 520 304 566 352" fill="none" stroke="#42B8FF" stroke-width="16" stroke-linecap="round" opacity=".38"/>
  <path d="M312 392 C384 342 522 342 594 392" fill="none" stroke="#F05DA8" stroke-width="12" stroke-linecap="round" opacity=".3"/>
  <g opacity=".42">
    <path d="M118 300 L236 194 L284 202 L182 330 Z" fill="#FFFFFF"/>
    <path d="M618 202 L782 302 L734 338 L576 226 Z" fill="#FFFFFF"/>
  </g>
  <circle cx="450" cy="410" r="74" fill="#FFFFFF" opacity=".32"/>
  <circle cx="450" cy="410" r="44" fill="#F4B942" opacity=".26"/>
</svg>
