<svg xmlns="http://www.w3.org/2000/svg" width="480" height="800" viewBox="0 0 480 800"><title>Maki delayed cursed hit placeholder</title><desc>Transparent second-reaction arch, facing left, feet on y 760.</desc><g transform="rotate(-7 240 585)" stroke="#17191e" stroke-width="18" stroke-linejoin="round"><path fill="#274f42" d="M164 297l134-31 82 287-183 41-66-156z"/><circle fill="#e1b28d" cx="236" cy="199" r="66"/><path fill="#172b27" d="M171 179l23-88 84 7 35 78-62-28-50 38z"/><path fill="#17191e" d="M198 579l82-18-5 199h-69zM294 559l76 35 27 166h-68z"/><path fill="#e1b28d" d="M156 357L80 255l-39 29 87 123zM331 340l75 109-39 27-91-98z"/><path fill="#35dde8" d="M104 281l32-18 118 162-28 21z"/><path fill="#d8bf68" d="M76 247l27 13 116 394-30 8z"/></g></svg>
