<svg xmlns="http://www.w3.org/2000/svg" width="480" height="800" viewBox="0 0 480 800"><title>Maki physical hit placeholder</title><desc>Transparent first-impact recoil, facing left, feet on y 760.</desc><g transform="rotate(8 245 570)" stroke="#17191e" stroke-width="18" stroke-linejoin="round"><path fill="#274f42" d="M174 289l126-19 73 293-183 26-57-161z"/><circle fill="#e1b28d" cx="244" cy="197" r="66"/><path fill="#172b27" d="M181 174l30-84 83 11 29 81-58-33-54 32z"/><path fill="none" stroke="#101b36" d="M180 193h55m18 0h57M235 193h18"/><path fill="#17191e" d="M191 574l82-9-27 195h-70zM291 559l78 24 32 177h-69z"/><path fill="#e1b28d" d="M158 348L47 325l-8 48 133 44zM334 344l111 27-12 46-127-12z"/><path fill="#d8bf68" d="M70 311l30 3 149 338-28 13z"/></g></svg>
