<svg xmlns="http://www.w3.org/2000/svg" width="480" height="800" viewBox="0 0 480 800"><title>Maki stagger placeholder</title><desc>Transparent off-balance stagger, facing left, feet on y 760.</desc><g transform="rotate(13 250 590)" stroke="#17191e" stroke-width="18" stroke-linejoin="round"><path fill="#274f42" d="M171 292l128-23 79 290-181 32-64-159z"/><circle fill="#e1b28d" cx="246" cy="198" r="66"/><path fill="#172b27" d="M184 175l27-86 84 12 30 80-59-32-53 34z"/><path fill="#17191e" d="M199 574l82-13-16 199h-69zM296 558l79 28 38 174h-68z"/><path fill="#e1b28d" d="M161 350L56 293l-22 43 122 77zM333 342l105 51-21 43-121-34z"/><path fill="#d8bf68" d="M75 287l30 8 133 356-29 10z"/></g></svg>
